<svg width="768" height="185" viewBox="0 0 768 185" fill="none" xmlns="http://www.w3.org/2000/svg">
<path d="M188.807 99.9533C187.676 101.165 187.742 103.063 188.953 104.193C190.165 105.324 192.063 105.258 193.193 104.047L188.807 99.9533ZM561 102V105H564V102H561ZM564 67C564 65.3431 562.657 64 561 64C559.343 64 558 65.3431 558 67H564ZM528.826 99C527.169 99 525.826 100.343 525.826 102C525.826 103.657 527.169 105 528.826 105V99ZM193.193 104.047C216.669 78.8887 288.478 28.4535 386.293 30.0364L386.39 24.0372C286.565 22.4217 213.208 73.8032 188.807 99.9533L193.193 104.047ZM386.293 30.0364C484.15 31.62 542.049 80.1859 558.543 103.722L563.457 100.278C545.862 75.1713 486.173 25.652 386.39 24.0372L386.293 30.0364ZM558 67V102H564V67H558ZM528.826 105H561V99H528.826V105Z" fill="white"/>
<path d="M40.616 21.8195C42.2697 19.6239 45.7716 15.6144 51.6206 13.0067C56.2622 10.9364 60.2596 10.6989 62.2311 10.599C73.5318 10.0286 82.4037 15.6685 85.8439 18.1339C85.9651 18.7073 85.548 22.4351 89.6814 24.6269C93.4037 26.602 96.9774 25.5198 97.6094 25.3174C99.8178 26.38 102.029 27.4416 104.238 28.5042C104.101 30.0615 103.714 32.3138 102.575 34.7777C100.918 38.3672 98.5092 40.5901 97.0958 41.7077C94.9232 40.5765 92.7484 39.4442 90.5758 38.313C90.5458 37.9907 90.0621 33.5797 86.1073 31.4915C82.6226 29.6507 79.1941 31.0649 78.3833 31.436C76.2043 32.4326 75.0034 34.0971 74.4263 34.9283C69.6555 41.7859 62.552 56.112 61.7733 57.6897C58.5448 56.0087 55.5267 54.4373 52.3004 52.7575C59.1943 40.292 59.2945 39.3447 62.273 33.6243C62.9163 32.3887 63.854 30.87 64.8765 28.6341C65.2352 27.8478 65.6427 27.2191 66.172 26.1357C66.8695 24.7088 67.3886 23.5116 67.9049 22.8074C65.6656 21.5013 62.0251 19.7698 57.2616 19.1167C49.3563 18.0334 43.1778 20.5806 40.616 21.8195Z" fill="white"/>
<path d="M28.7847 114.815L24.5488 112.609C22.374 111.477 21.5191 108.816 22.639 106.665L53.1035 48.1543L65.0919 54.3962L34.5646 113.028C33.4794 115.112 30.8921 115.912 28.7847 114.815Z" fill="white"/>
<path fill-rule="evenodd" clip-rule="evenodd" d="M761.347 11.8755C743.171 -10.5582 693.36 -0.273449 650.092 34.8474C606.821 69.9682 586.478 116.626 604.653 139.065C618.189 155.771 649.272 154.327 682.133 137.996L667.121 171.995C666.189 172.89 665.687 173.841 665.687 174.826C665.687 174.948 665.697 175.065 665.712 175.185C666.365 180.441 681.274 184.644 699.572 184.644C718.285 184.644 733.457 180.247 733.457 174.826C733.457 174.382 733.355 173.946 733.159 173.52L733.434 173.398L710.125 120.604C712.063 119.145 713.992 117.643 715.908 116.088C759.179 80.967 779.522 34.3093 761.347 11.8755ZM729.057 174.821C729.057 178.875 719.317 182.267 706.249 183.144L704.731 166.408C718.555 167.114 729.057 170.613 729.057 174.821ZM707.184 122.772L727.757 169.371C722.565 167.122 714.252 165.528 704.614 165.112L701.151 126.957C703.169 125.615 705.182 124.22 707.184 122.772ZM699.574 183.366C683.289 183.366 670.089 179.541 670.089 174.823C670.089 170.105 683.289 166.28 699.574 166.278C700.102 166.278 700.621 166.283 701.141 166.29L702.685 183.318C701.664 183.351 700.624 183.366 699.574 183.366ZM699.572 165.005C688.42 165.005 678.527 166.566 672.352 168.976L687.187 135.372C690.711 133.467 694.242 131.394 697.768 129.157L701.021 165.015C700.54 165.008 700.058 165.005 699.572 165.005ZM708.908 66.3512L660.491 48.6932L709.268 103.419L707.029 105.415L658.305 50.7498L667.438 103.874L664.482 104.382L655.181 50.2833C652.674 51.9764 650.112 52.4182 648.655 51.1713C646.596 49.4096 647.522 44.9439 650.722 41.1971C653.922 37.4502 658.185 35.8409 660.244 37.6027C661.889 39.0102 661.629 42.1436 659.826 45.2574L709.936 63.5327L708.908 66.3512Z" fill="white"/>
<path fill-rule="evenodd" clip-rule="evenodd" d="M88.2382 106.215C88.4289 106.614 88.2715 107.156 87.8258 107.789L84.5369 115.49C85.1184 115.299 85.7798 115.376 86.3178 115.757C87.2195 116.395 87.4333 117.643 86.7953 118.545L85.8976 119.814L87.0641 122.254C87.7396 121.752 88.687 121.715 89.411 122.228C90.3127 122.866 90.5265 124.114 89.8885 125.015L88.9911 126.284L90.1577 128.724C90.8332 128.223 91.7804 128.186 92.5043 128.699C93.406 129.337 93.6198 130.585 92.9818 131.486L92.0846 132.755L93.2515 135.195C93.927 134.694 94.8744 134.657 95.5983 135.169C96.5 135.807 96.7138 137.056 96.0759 137.957L95.1784 139.226L96.3451 141.666C97.0205 141.165 97.9677 141.128 98.6916 141.64C99.5933 142.278 99.8071 143.526 99.1691 144.428L98.2719 145.696L99.4389 148.137C100.114 147.636 101.062 147.599 101.786 148.111C102.687 148.749 102.901 149.997 102.263 150.899L101.366 152.167L102.533 154.608C103.208 154.107 104.156 154.07 104.88 154.582C105.781 155.22 105.995 156.468 105.357 157.37L104.46 158.638L105.626 161.078C106.302 160.577 107.249 160.54 107.973 161.053C108.875 161.691 109.088 162.939 108.451 163.841L107.553 165.109L109.931 170.082L109.905 170.094L109.82 179.723L102.273 173.744L102.246 173.756L101.832 172.89C101.175 173.276 100.325 173.267 99.6628 172.798C98.7611 172.16 98.5473 170.912 99.1852 170.011L99.9434 168.939L98.7388 166.419C98.0816 166.805 97.2321 166.796 96.5695 166.328C95.6678 165.69 95.454 164.441 96.092 163.54L96.8499 162.469L95.645 159.948C94.9878 160.334 94.1381 160.326 93.4754 159.857C92.5737 159.219 92.3599 157.971 92.9979 157.069L93.7561 155.997L92.5512 153.477C91.894 153.863 91.0441 153.855 90.3814 153.386C89.4797 152.748 89.2659 151.5 89.9038 150.598L90.6622 149.526L89.4576 147.007C88.8004 147.393 87.9507 147.384 87.2881 146.915C86.3864 146.277 86.1726 145.029 86.8106 144.127L87.5687 143.056L86.3639 140.536C85.7066 140.922 84.8568 140.913 84.194 140.444C83.2923 139.806 83.0785 138.558 83.7165 137.656L84.4749 136.585L83.2702 134.065C82.6131 134.451 81.7634 134.442 81.1008 133.973C80.1991 133.335 79.9853 132.087 80.6233 131.185L81.3813 130.114L80.1767 127.594C79.5195 127.98 78.67 127.971 78.0076 127.503C77.1059 126.865 76.8921 125.616 77.53 124.715L78.2878 123.644L76.5188 119.943L67.6447 117.438C66.8717 117.387 66.3519 117.169 66.1612 116.77C65.4325 115.246 69.7839 111.648 75.8803 108.733C81.9767 105.819 87.5095 104.691 88.2382 106.215ZM80.0924 108.765C80.3609 108.449 80.3229 107.976 80.0074 107.707C79.692 107.439 79.2187 107.477 78.9502 107.792L76.6951 110.442L70.7196 112.71C70.3323 112.857 70.1376 113.291 70.2846 113.678C70.4316 114.065 70.8647 114.26 71.252 114.113L74.6774 112.812L74.0842 113.509C73.8157 113.825 73.8538 114.298 74.1692 114.567C74.4846 114.835 74.958 114.797 75.2264 114.482L77.5876 111.708L83.1261 109.605C83.5133 109.458 83.7081 109.025 83.561 108.638C83.414 108.25 82.9809 108.056 82.5937 108.203L79.6052 109.337L80.0924 108.765Z" fill="white"/>
<path fill-rule="evenodd" clip-rule="evenodd" d="M111.542 61.1992H139.811L153.726 85.3674L139.811 109.389H111.688L97.627 85.2209L111.542 61.1992ZM125.75 99.4288C133.516 99.4288 139.811 93.1333 139.811 85.3673C139.811 77.6014 133.516 71.3059 125.75 71.3059C117.984 71.3059 111.688 77.6014 111.688 85.3673C111.688 93.1333 117.984 99.4288 125.75 99.4288Z" fill="white"/>
</svg>
