<svg width="169" height="188" viewBox="0 0 169 188" fill="none" xmlns="http://www.w3.org/2000/svg">
<path d="M73.6313 30.4948C76.4951 27.579 82.4352 22.3473 91.5637 19.6376C98.8079 17.4859 104.747 17.9111 107.673 18.1463C124.443 19.4974 136.428 29.5326 141.021 33.8344C141.089 34.7033 139.751 40.1179 145.419 44.1508C150.523 47.7844 156.001 46.8823 156.972 46.7065C160.022 48.7013 163.076 50.6952 166.126 52.69C165.622 54.9593 164.615 58.2046 162.458 61.616C159.318 66.5861 155.336 69.3959 153.036 70.7694C150.053 68.6803 147.066 66.5893 144.083 64.5002C144.101 64.0192 144.244 57.4227 138.818 53.5772C134.038 50.1875 128.71 51.6074 127.443 51.9972C124.037 53.0437 121.944 55.2646 120.932 56.378C112.568 65.562 99.3176 85.3037 97.8637 87.4785C93.4303 84.3742 89.2858 81.4722 84.8554 78.37C97.4363 61.3307 97.7678 59.9536 103.268 52.0982C104.456 50.4015 106.133 48.3446 108.074 45.2467C108.756 44.1571 109.478 43.3094 110.469 41.8148C111.774 39.8466 112.771 38.1824 113.669 37.2444C110.621 34.8847 105.59 31.6259 98.6945 29.7391C87.2506 26.6088 77.6482 29.1655 73.6313 30.4948Z" fill="white"/>
<path d="M40.6586 164.12L33.0938 158.823C29.21 156.104 27.7374 151.507 29.8042 148.556L84.8802 69.899C85.5137 68.9942 86.7608 68.7743 87.6656 69.4079L105.799 82.1048C106.704 82.7384 106.923 83.9855 106.29 84.8903L51.098 163.712C49.0952 166.573 44.4222 166.755 40.6586 164.12Z" fill="white"/>
</svg>
