<svg width="77" height="128" viewBox="0 0 77 128" fill="none" xmlns="http://www.w3.org/2000/svg">
<path d="M77 37.7658C77 16.9081 59.7632 0 38.5 0C17.2368 0 0 16.9081 0 37.7658C0 42.1074 0.749428 46.2789 2.12485 50.1622H2.05725L2.35115 50.7906C3.04179 52.6357 3.87645 54.4115 4.84042 56.1067L38.5 128L72.1596 56.1096C73.1235 54.4115 73.9582 52.6386 74.6489 50.7935L74.9427 50.165H74.8752C76.2506 46.2789 77 42.1074 77 37.7658ZM38.5 63.1351C24.2168 63.1351 12.6374 51.7766 12.6374 37.7658C12.6374 23.755 24.2168 12.3964 38.5 12.3964C52.7832 12.3964 64.3626 23.755 64.3626 37.7658C64.3626 51.7766 52.7832 63.1351 38.5 63.1351Z" fill="white"/>
</svg>
