<svg width="180" height="154" viewBox="0 0 180 154" fill="none" xmlns="http://www.w3.org/2000/svg">
<path fill-rule="evenodd" clip-rule="evenodd" d="M138.405 49.7089C138.405 68.6969 127.759 85.1983 112.11 93.5695H118.911C152.286 93.5695 179.342 120.625 179.342 154H0C0 120.625 27.0556 93.5695 60.4304 93.5695H65.2827C49.6337 85.1983 38.9874 68.6969 38.9874 49.7089C38.9874 22.2554 61.2428 0 88.6962 0C116.15 0 138.405 22.2554 138.405 49.7089ZM83.0336 53.9688C82.2524 56.125 81.8305 59.0625 81.768 62.7812H90.4399C90.4399 58.0312 91.5805 54.3906 93.8617 51.8594L98.9711 46.7969C104.034 41.4844 106.565 36.0938 106.565 30.625C106.565 25.0938 104.909 20.75 101.596 17.5938C98.3149 14.4062 93.7211 12.8125 87.8149 12.8125C82.1274 12.8125 77.5024 14.375 73.9399 17.5C70.4086 20.5938 68.6117 24.6719 68.5492 29.7344H77.2211C77.2211 26.8906 78.1899 24.625 80.1274 22.9375C82.0649 21.25 84.6274 20.4062 87.8149 20.4062C91.0961 20.4062 93.5961 21.3438 95.3149 23.2188C97.0336 25.0625 97.893 27.625 97.893 30.9062C97.893 34.3125 96.5805 37.5 93.9555 40.4688L87.8149 46.7969C85.4086 49.4219 83.8149 51.8125 83.0336 53.9688ZM82.6586 74.125C81.8149 75.0625 81.393 76.2344 81.393 77.6406C81.393 79.0469 81.8149 80.2188 82.6586 81.1562C83.5336 82.0625 84.8149 82.5156 86.5024 82.5156C88.1899 82.5156 89.4711 82.0625 90.3461 81.1562C91.2211 80.2188 91.6586 79.0469 91.6586 77.6406C91.6586 76.2344 91.2211 75.0625 90.3461 74.125C89.4711 73.1562 88.1899 72.6719 86.5024 72.6719C84.8149 72.6719 83.5336 73.1562 82.6586 74.125Z" fill="white"/>
</svg>
