<svg width="41" height="41" viewBox="0 0 41 41" fill="none" xmlns="http://www.w3.org/2000/svg">
<g filter="url(#filter0_d)">
<path fill-rule="evenodd" clip-rule="evenodd" d="M20.5 34C29.6127 34 37 26.6127 37 17.5C37 8.3873 29.6127 1 20.5 1C11.3873 1 4 8.3873 4 17.5C4 26.6127 11.3873 34 20.5 34ZM18.9961 20.2402C18.752 20.9141 18.6201 21.832 18.6006 22.9941H21.3105C21.3105 21.5098 21.667 20.3721 22.3799 19.5811L23.9766 17.999C25.5586 16.3389 26.3496 14.6543 26.3496 12.9453C26.3496 11.2168 25.832 9.85938 24.7969 8.87305C23.7715 7.87695 22.3359 7.37891 20.4902 7.37891C18.7129 7.37891 17.2676 7.86719 16.1543 8.84375C15.0508 9.81055 14.4893 11.085 14.4697 12.667H17.1797C17.1797 11.7783 17.4824 11.0703 18.0879 10.543C18.6934 10.0156 19.4941 9.75195 20.4902 9.75195C21.5156 9.75195 22.2969 10.0449 22.834 10.6309C23.3711 11.207 23.6396 12.0078 23.6396 13.0332C23.6396 14.0977 23.2295 15.0938 22.4092 16.0215L20.4902 17.999C19.7383 18.8193 19.2402 19.5664 18.9961 20.2402ZM18.8789 26.5391C18.6152 26.832 18.4834 27.1982 18.4834 27.6377C18.4834 28.0771 18.6152 28.4434 18.8789 28.7363C19.1523 29.0195 19.5527 29.1611 20.0801 29.1611C20.6074 29.1611 21.0078 29.0195 21.2812 28.7363C21.5547 28.4434 21.6914 28.0771 21.6914 27.6377C21.6914 27.1982 21.5547 26.832 21.2812 26.5391C21.0078 26.2363 20.6074 26.085 20.0801 26.085C19.5527 26.085 19.1523 26.2363 18.8789 26.5391Z" fill="white"/>
</g>
<defs>
<filter id="filter0_d" x="0" y="1" width="41" height="41" filterUnits="userSpaceOnUse" color-interpolation-filters="sRGB">
<feFlood flood-opacity="0" result="BackgroundImageFix"/>
<feColorMatrix in="SourceAlpha" type="matrix" values="0 0 0 0 0 0 0 0 0 0 0 0 0 0 0 0 0 0 127 0"/>
<feOffset dy="4"/>
<feGaussianBlur stdDeviation="2"/>
<feColorMatrix type="matrix" values="0 0 0 0 0 0 0 0 0 0 0 0 0 0 0 0 0 0 0.25 0"/>
<feBlend mode="normal" in2="BackgroundImageFix" result="effect1_dropShadow"/>
<feBlend mode="normal" in="SourceGraphic" in2="effect1_dropShadow" result="shape"/>
</filter>
</defs>
</svg>
