<svg width="34" height="42" viewBox="0 0 34 42" fill="none" xmlns="http://www.w3.org/2000/svg">
<g clip-path="url(#clip0)">
<path d="M24.7852 13.313L23.4103 18.5929L20.3494 19.0909L21.606 13.6184L24.7852 13.313Z" fill="white"/>
<path d="M23.059 7.29281L26.4375 6.96826L24.9195 12.7993L21.7238 13.1064L23.059 7.29281Z" fill="white"/>
<path d="M23.1768 6.78142L24.7345 0L28.209 0.166008L26.571 6.45522L23.1768 6.78142Z" fill="white"/>
<path d="M16.6944 33.9983L19.5566 33.1201L18.7302 36.5664L15.9002 37.4338L16.6944 33.9983Z" fill="white"/>
<path opacity="0.08" d="M20.8281 27.9988V28.1797L20.7793 28.2005L20.8281 27.9988Z" fill="white"/>
<path d="M16.8697 33.4264L17.7846 29.4662L20.7793 28.2004L19.7361 32.5474L16.8697 33.4264Z" fill="white"/>
<path d="M18.7148 36.8071L17.8586 40.3755L14.8896 41.9999L15.889 37.6737L18.7148 36.8071Z" fill="white"/>
<path d="M27.4485 23.2403L23.4107 24.4032L24.5688 21L28.2344 19.9351L27.4485 23.2403Z" fill="white"/>
<path d="M31.4868 18.9903L34 18.2607L32.9246 21.6639L30.7001 22.3047L31.4868 18.9903Z" fill="white"/>
<path d="M30.3023 22.4184L27.8454 23.1264L28.6304 19.8204L31.0898 19.1057L30.3023 22.4184Z" fill="white"/>
<path d="M11.2306 28.9851L6.31422 30.7215L6.87758 26.0675L11.875 24.6074L11.2306 28.9851Z" fill="white"/>
<path d="M5.79271 30.9057L-0.00135422 32.9526L0.213732 28.0139L6.35938 26.2185L5.79271 30.9057Z" fill="white"/>
<path d="M12.4003 24.4547L17.123 23.0752L16.2131 27.2254L11.7608 28.7983L12.4003 24.4547Z" fill="white"/>
<path d="M17.4992 22.2601C19.0759 19.8488 21.6908 18.7747 23.3396 19.8604L26.1406 21.6641L20.8288 30.7215C20.8288 30.7215 18.4323 29.1021 17.7879 28.6871C17.7341 28.6572 17.682 28.6257 17.6299 28.5916C15.9811 27.5051 15.9224 24.6713 17.4992 22.2601Z" fill="white"/>
<path d="M20.0766 31.1364C19.5298 29.5776 20.084 27.0394 21.6351 24.6671C23.676 21.5461 26.6673 19.896 28.316 20.9817L31.1543 22.9589L28.9116 25.9628C28.6155 26.826 28.1787 27.7233 27.607 28.5982C26.726 29.9445 25.6688 31.0169 24.6182 31.7141L22.9488 33.9511L21.5086 32.54C21.3009 32.4852 21.1057 32.4014 20.9262 32.2835C20.5316 32.0237 20.2511 31.6295 20.0782 31.1398L20.0766 31.1381V31.1364Z" fill="url(#paint0_linear)"/>
<path d="M23.952 26.3704C26.0384 23.1797 29.0669 21.4732 30.7156 22.5589C31.1648 22.8544 31.4635 23.3275 31.6206 23.9218L31.6215 23.921L33.1602 28.868L30.1076 33.9296L24.7859 34.401V34.4002C24.1721 34.4973 23.6137 34.411 23.1595 34.1122C21.5108 33.0273 21.8657 29.5603 23.952 26.3704Z" fill="white"/>
<path d="M29.759 33.5876C29.3048 32.9975 29.5141 31.7018 30.3033 30.4941C31.1885 29.1403 32.4674 28.4123 33.1598 28.868C33.1987 28.8938 33.2343 28.9228 33.2674 28.9544L33.2699 28.9568C33.2798 28.966 33.2889 28.9759 33.2988 28.9859L33.7207 29.4159L33.5735 29.6209C33.6661 30.2907 33.3997 31.2419 32.8099 32.1442C32.1233 33.1942 31.2009 33.8665 30.4977 33.9039L30.3257 34.1438L29.9195 33.7453C29.8599 33.7013 29.807 33.6491 29.7615 33.5901L29.759 33.5876Z" fill="url(#paint1_linear)"/>
<path d="M30.326 34.1452C29.6338 33.6895 29.7904 32.2226 30.6756 30.8688C31.5609 29.5151 32.8397 28.7871 33.5319 29.2428C34.224 29.6985 34.0675 31.1653 33.1822 32.5191C32.297 33.8728 31.0182 34.6009 30.326 34.1452Z" fill="url(#paint2_linear)"/>
<path d="M30.878 31.0002C30.1351 32.1365 30.0035 33.3683 30.5843 33.7509C31.165 34.1336 32.2388 33.5218 32.9825 32.3855C33.7262 31.2492 33.8569 30.0174 33.2762 29.6348C32.6946 29.2521 31.6208 29.8639 30.878 31.0002Z" fill="url(#paint3_linear)"/>
</g>
<defs>
<linearGradient id="paint0_linear" x1="29.2609" y1="20.7743" x2="22.2237" y2="34.0549" gradientUnits="userSpaceOnUse">
<stop offset="1" stop-color="white"/>
</linearGradient>
<linearGradient id="paint1_linear" x1="33.0162" y1="28.7836" x2="30.015" y2="33.9643" gradientUnits="userSpaceOnUse">
<stop offset="1" stop-color="white"/>
</linearGradient>
<linearGradient id="paint2_linear" x1="34.3341" y1="29.8375" x2="28.9158" y2="31.3361" gradientUnits="userSpaceOnUse">
<stop offset="1" stop-color="white"/>
</linearGradient>
<linearGradient id="paint3_linear" x1="33.0653" y1="29.562" x2="30.6726" y2="33.7493" gradientUnits="userSpaceOnUse">
<stop offset="1" stop-color="white"/>
</linearGradient>
<clipPath id="clip0">
<rect width="34" height="42" fill="white" transform="matrix(-1 0 0 1 34 0)"/>
</clipPath>
</defs>
</svg>
