<svg width="118" height="128" viewBox="0 0 118 128" fill="none" xmlns="http://www.w3.org/2000/svg">
<path fill-rule="evenodd" clip-rule="evenodd" d="M4.61862 8.19163C17.156 -7.28299 51.5151 -0.188623 81.3611 24.0374C111.209 48.2635 125.242 80.4476 112.704 95.9257C103.367 107.449 81.927 106.454 59.26 95.1887L69.6146 118.641C70.2578 119.258 70.604 119.914 70.604 120.593C70.604 120.678 70.597 120.759 70.5864 120.841C70.1366 124.467 59.8522 127.366 47.2305 127.366C34.3223 127.366 23.857 124.333 23.857 120.593C23.857 120.287 23.9273 119.986 24.0626 119.693L23.8728 119.608L39.9513 83.1917C38.6139 82.1855 37.2836 81.1494 35.962 80.0764C6.11417 55.8504 -7.91873 23.6663 4.61862 8.19163ZM26.892 120.59C26.892 123.387 33.6106 125.726 42.6243 126.331L43.6717 114.787C34.136 115.274 26.892 117.687 26.892 120.59ZM41.9794 84.687L27.7883 116.831C31.3699 115.279 37.1043 114.18 43.7526 113.893L46.1409 87.5736C44.749 86.6483 43.3607 85.6861 41.9794 84.687ZM47.2287 126.484C58.4621 126.484 67.5672 123.846 67.5672 120.592C67.5672 117.337 58.4621 114.699 47.2287 114.697C46.865 114.697 46.5064 114.7 46.1479 114.706L45.0829 126.451C45.7877 126.474 46.5047 126.484 47.2287 126.484ZM47.2305 113.819C54.9227 113.819 61.7467 114.896 66.0066 116.558L55.7733 93.3786C53.3428 92.0645 50.907 90.6344 48.4747 89.0917L46.2305 113.826C46.5627 113.821 46.8948 113.819 47.2305 113.819ZM40.9507 46.2053L72.6111 34.6585L40.1952 71.0276L42.4348 73.0237L74.9625 36.5292L68.9379 71.572L71.8945 72.0803L78.2772 34.9543C79.8656 35.8947 81.4303 36.0867 82.3531 35.2971C83.7732 34.0819 83.135 31.0016 80.9276 28.417C80.5137 27.9324 80.074 27.4996 79.6234 27.1243L79.6943 26.7115L79.4513 26.9842C77.5453 25.4671 75.4794 24.9792 74.3593 25.9376C73.2974 26.8463 73.3863 28.7977 74.4216 30.805L39.9228 43.3869L40.9507 46.2053Z" fill="white"/>
</svg>
